<svg xmlns="http://www.w3.org/2000/svg" width="15.333" height="15.333" viewBox="0 0 15.333 15.333">
    <g id="instagram-logo" transform="translate(-14 -20)">
        <g id="post-instagram" transform="translate(14 20)">
            <path id="Path_41" data-name="Path_41" d="M11.5,0H3.833A3.837,3.837,0,0,0,0,3.833V11.5a3.837,3.837,0,0,0,3.833,3.833H11.5A3.837,3.837,0,0,0,15.333,11.5V3.833A3.837,3.837,0,0,0,11.5,0ZM7.667,11.5A3.833,3.833,0,1,1,11.5,7.667,3.837,3.837,0,0,1,7.667,11.5Zm4.027-7.021a1.149,1.149,0,1,1,1.149-1.149A1.149,1.149,0,0,1,11.694,4.479Z" fill="#8c8c8e"/>
            <path id="Path_42" data-name="Path_42" d="M7.667,5.167A2.5,2.5,0,1,0,10.167,7.667,2.5,2.5,0,0,0,7.667,5.167Z" fill="#8c8c8e"/>
        </g>
    </g>
</svg>